# xmcd
#
# Track frame offsets: 
#        150
#        13514
#        28012
#        44318
#        59766
#        77262
#        93474
#        106753
#        123801
#        138160
#        154246
#        171124
#        186564
#
# Disc length: 2704 seconds
#
# Revision: 0
# Processed by: cddbd v1.5.2PL0 Copyright (c) Steve Scherf et al.
# Submitted via: ExactAudioCopyFreeDBPlugin 1.0
#
DISCID=a10a8e0d
DTITLE=Jason Derulo - Talk Dirty (Deluxe Edition)
DYEAR=2014
DGENRE=R&B
TTITLE0=Talk Dirty Feat. 2 Chainz
TTITLE1=Wiggle Feat. Snoop Dogg
TTITLE2=Trumpets
TTITLE3=Bubblegum Feat. Tyga
TTITLE4=Vertigo Feat. Jordin Sparks
TTITLE5=Kama Sutra Feat. Kid Ink
TTITLE6=Zipper
TTITLE7=The Other Side
TTITLE8=With The Lights On
TTITLE9=Stupid Love
TTITLE10=Marry Me
TTITLE11=Tattoo (Bonus Track)
TTITLE12=Fire Feat. Pitbull (Bonus Track)
EXTD=
EXTT0=
EXTT1=
EXTT2=
EXTT3=
EXTT4=
EXTT5=
EXTT6=
EXTT7=
EXTT8=
EXTT9=
EXTT10=
EXTT11=
EXTT12=
PLAYORDER=
